<svg width="100" height="100" xmlns="http://www.w3.org/2000/svg">

 <g>
  <title>Layer 1</title>
  <text transform="matrix(1 0 0 1 0 0)" xml:space="preserve" text-anchor="start" font-family="Noto Sans JP" font-size="24" id="svg_1" y="300" x="391.99609" stroke-width="0" stroke="#000" fill="#000000"/>
  <path stroke="#000" id="svg_10" d="m1.93,50.4025l0,0c0,-26.50967 21.71419,-48 48.5,-48l0,0c12.86299,0 25.19917,5.05713 34.29467,14.05887c9.09552,9.00175 14.20533,21.21073 14.20533,33.94113l0,0c0,26.50966 -21.71419,48 -48.5,48l0,0c-26.78581,0 -48.5,-21.49034 -48.5,-48zm24.25,0l0,0c0,13.25483 10.8571,24 24.25,24c13.39291,0 24.25,-10.74517 24.25,-24c0,-13.25483 -10.8571,-24 -24.25,-24l0,0c-13.3929,0 -24.25,10.74517 -24.25,24z" stroke-width="0" fill="#00ce00"/>
 </g>
</svg>