<svg xmlns="http://www.w3.org/2000/svg" xmlns:xlink="http://www.w3.org/1999/xlink" viewBox="0 0 52 68" fill="#fff" fill-rule="evenodd" stroke="#000" stroke-linecap="round" stroke-linejoin="round"><style><![CDATA[.B{fill:#000}.C{stroke:#fff}.D{stroke-linejoin:miter}.E{stroke-width:.787}.F{stroke:none}.G{stroke-linecap:square}.H{fill:none}]]></style><use xlink:href="#A" x=".5" y=".5"/><symbol id="A" overflow="visible"><g class="B C D E"><path d="M39.743 11.018L50.761 0H12.592L0 11.018h39.743z"/><path d="M39.743 66.894V11.018H0v55.876h39.743z"/></g><path d="M39.743 36.989H0z" class="B F"/><path d="M39.743 36.989H0" class="C D E G H"/><path d="M5.115 49.974h12.198z" class="B F"/><path d="M5.115 49.974h12.198" class="C D E G H"/><path d="M5.115 52.729h12.198z" class="B F"/><path d="M5.115 52.729h12.198" class="C D E G H"/><path d="M5.115 55.483h12.198z" class="B F"/><path d="M5.115 55.483h12.198" class="C D E G H"/><path d="M5.115 58.237h12.198z" class="B F"/><path d="M5.115 58.237h12.198" class="C D E G H"/><path d="M5.115 60.598h12.198z" class="B F"/><g class="C D E"><path d="M5.115 60.598h12.198" class="G H"/><path d="M50.761 54.696V.394L39.743 11.018v55.876l11.018-12.198z" class="B"/></g><path d="M39.743 37.776H0z" class="B F"/><path d="M39.743 37.776H0" class="C D E G H"/></symbol></svg>