<svg width="100" height="100" xmlns="http://www.w3.org/2000/svg">
 <g>
  <title>Layer 1</title>
  <text fill="#000000" stroke="#000" stroke-width="0" x="391.99609" y="300" id="svg_1" font-size="24" font-family="Noto Sans JP" text-anchor="start" xml:space="preserve"/>
  <path id="svg_14" d="m-16.28258,19.6143l-6.53758,-4.10172" opacity="NaN" stroke-width="0" stroke="#000" fill="#00ff00"/>
  <path id="svg_15" d="m18.20407,24.74243" opacity="NaN" stroke-width="0" stroke="#000" fill="#00ff00"/>
  <path stroke="#000" id="svg_19" d="m99.97696,38.3519l-38.10635,0l-11.76293,-37.97781l-1.65167,5.30736l-10.12514,32.67774l-38.09594,-0.00728l30.81958,23.49361l-11.78375,38.00329l30.82652,-23.49361l30.83346,23.50453l-11.78722,-38.01422l30.83346,-23.49361zm-45.79563,32.11351l-4.07712,-3.10506l-4.07712,3.1087l-13.53952,10.31622l5.17014,-16.6865l1.56145,-5.0307l-4.08406,-3.11234l-13.53258,-10.31622l21.77357,0l1.56145,-5.02706l5.16667,-16.6865l5.16667,16.67558l1.55798,5.02706l21.79439,0l-13.5534,10.3235l-4.08753,3.1087l1.55798,5.03798l5.18055,16.6865l-13.53952,-10.31986z" stroke-width="0" fill="#0000ff"/>
 </g>

</svg>